<svg viewBox="3.799999713897705 22.099998474121094 91.29999542236328 55.95000457763672" width="271.0462" height="166.101" xmlns="http://www.w3.org/2000/svg" xmlns:xlink="http://www.w3.org/1999/xlink" style="position: absolute; inset: 0px;fill:#CC79FD; transform: scale(-1,1)" preserveAspectRatio="none" opacity="1"><g transform="matrix(1 0 0 1 0 0)" class="aLgOaV3zRcolors-0"><g><path d="M94.8,33.9c0-5.3-1.9-10.7-4.9-10.7c-3.1,0-4.7,5.4-4.7,10.7c0,1.4,0,4.1-0.1,5.5L85,39.7c-0.5,0.1-1.7,0.3-3.1,0.3   c-0.6,0-1.1-0.1-1.3-0.1c-0.1-0.5,0-1.4,0-2c0-0.6,0-1.2,0-1.7c-0.2-4.3-1.8-7.3-4.1-7.3s-4.1,3.2-4.1,7.4c0,0.7,0.1,1.5,0.2,2.1   c0.1,0.5,0.2,1.4,0.1,1.7c-0.4,0.2-1.9,0.5-3.4,0.5c-0.7,0-1-0.1-1.1-0.1c0-0.1,0.1-0.3,0.1-0.5c0.1-0.3,0.1-0.7,0.1-1   c0-3.1-1.8-5.5-4.1-5.5c-3,0-3.8,3.8-4.1,5.3c0,0-0.6,3.4-0.7,5.2c-0.3-0.2-0.6-0.4-0.9-0.5l-0.1-0.1c-2.9-1.1-6.5-1.7-10.1-1.7   c-3,0-5.9,0.5-8.1,1.3c-0.7,0.2-1.2,0.5-1.6,0.8c-0.1-2.2-0.7-5.5-0.7-5.6c-0.4-1.5-1.2-5.8-4.1-5.8c-2.3,0-4.1,2.4-4.1,5.5   c0,0.4,0.1,0.7,0.1,1C30,39,30,39.3,30,39.4c-0.1,0-0.4,0.1-1.1,0.1c-1.5,0-3-0.3-3.4-0.5c-0.1-0.3,0-1.1,0.1-1.7   c0.1-0.7,0.2-1.4,0.2-2.1c0-4.2-1.8-7.4-4.1-7.4c-2.7,0-4,3.7-4.1,7.3c0,0.5,0,1.1,0,1.7c0,0.6,0.1,1.6,0,2   c-0.2,0.1-0.7,0.1-1.3,0.1c-1.4,0-2.6-0.2-3.1-0.3l-0.1-0.3C13,37.1,13,34.7,13,33v-0.2c0-5.3-1.5-10.7-4.6-10.7   c-3.2,0-4.5,5.5-4.6,10.7c0,4,0.2,11.3,0.2,11.4V45c0,1.1-0.2,4.5,17.3,4.5c0.1,0,0.1,0,0.3,0c0.4,0.1,0.8,0.1,1.2,0.1   c-0.9,1.3-1.6,2.8-2,4.6l-0.1,0.4l0.6,1.1c-1.8,1.6-3.1,4.2-3.7,9c-0.3,2.5,0.5,4.7,2.3,6.8c3.8,4.2,11.8,6.5,20.5,6.5   c2.7,0,5.3,0.2,8-0.2c6.3-1.3,11.3-4.1,14.3-9c1.4-2.3,2.3-4.9,2.7-7.5c2.5,1,5.5,1.1,7.3,1.1c0.9,0,1.6,0,1.7-0.2l0.8-0.1l0.2-0.7   c0.1-0.3,1.6-6.5-0.2-11c0.7,0,1.5,0,2,0c17.6,0,17.8-3.3,17.9-4.4v-0.8C95.1,45.2,94.8,37.9,94.8,33.9z M21.3,47.4   C8.6,47.4,6,45.5,6,45v-0.8c0-0.1-0.1-7.4-0.1-11.4c0.1-5.6,1.7-8.6,2.5-8.6c0.9,0,2.6,3.3,2.6,8.6V33c0,1.5,0,3.1,0,4.3   c0,1.9,0,2.9,0.8,3c0.6,0.4,1.9,0.7,4.4,0.7c2,0,2.4-0.3,2.6-0.4c0.9-0.7,0.9-2.1,0.8-3.8c0-0.5,0-1,0-1.5c0.2-3.3,1.3-5.3,2-5.3   c0.8,0,2,2.1,2,5.2c0,0.6-0.1,1.2-0.2,1.8c-0.2,1.3-0.4,2.6,0.3,3.4c1,1.3,4.7,1.3,5.1,1.3c1.4,0,1.8-0.2,2-0.3   c1.4-0.6,1.2-2,1.1-2.7c0-0.2-0.1-0.4-0.1-0.6c0-2,1-3.4,1.9-3.4c1.1,0,1.5,1.9,1.9,3.6c0.6,2.9,0.4,5.3,0.4,5.7v0.1   c0,0.2,0.3,0.9-0.2,0.9c-1,0-1.9-0.2-2.7-0.2c-3,0-5.8,0.9-9.7,2.6c-0.3,0.1-1,0-1.5,0C21.6,47.4,21.4,47.4,21.3,47.4z M22.9,54.3   c0.9-3.3,2.8-5.5,5.7-6.5c0.6-0.2,1.2-0.3,1.8-0.4c1.2-0.2,2.6-0.2,4.2-0.1c0.2,0.1,0.5,0.1,0.8,0.1c-3,3.1-5.9,4.2-8.5,5.3   c-1.3,0.5-2.6,1-3.8,1.7L22.9,54.3z M60.9,67.5c-2.7,4.4-7.2,7.1-13,8.3c-2.4,0.5-4.9,0.3-7.4,0.3c-8.1,0-15.5-2.1-18.9-5.9   c-1.4-1.7-2-3.1-1.8-5c0.9-7.7,3.7-8.8,7.8-10.4c2.9-1.1,6.4-2.5,9.9-6.6c0.3-0.3,0.5-0.7,0.8-1c0.8-1,1.3-1.8,2.6-2.2   c2-0.8,4.6-1.2,7.4-1.2c3.3,0,6.7,0.5,9.5,1.6c2.7,1.5,4.5,5,5.2,7.9C64.3,58.2,63.5,63.3,60.9,67.5z M73.4,60.2   c-1.5,0.1-5.1,0-7.7-1.2c0.1-2.1-0.1-4.1-0.7-6.2c-0.3-1-1.1-3.4-2.5-5.6c0.4-0.1,0.7-0.1,1.1-0.2c3.5,0.1,6.2,0.4,8.8,2.8   C74.5,52.8,73.8,58.2,73.4,60.2z M93,45.9c0,0.5-3,2.4-15.8,2.4c-0.8,0-2.4-0.1-3.2-0.1c-0.2-0.3-0.5-0.6-0.8-0.8   c-3.1-2.8-6.7-3-10.1-2.5c-0.2,0-0.4,0-0.6,0h-0.7c-0.2,0-0.3-0.1-0.4-0.2c0.1-0.8,0.2-3,0.7-5.4c0.4-1.6,1-3.6,2-3.6s2,1.4,2,3.4   c0,0.2-0.1,0.4-0.1,0.6c-0.1,0.7-0.3,2,1.1,2.7c0.1,0.1,0.6,0.3,2,0.3c0.4,0,4.1-0.1,5.1-1.3c0.6-0.9,0.5-2.1,0.3-3.4   c-0.1-0.6-0.2-1.2-0.2-1.8c0-3.1,1.2-5.2,2-5.2c0.8,0,1.9,2,2,5.3c0,0.5,0,1,0,1.5c-0.1,1.8-0.1,3.1,0.8,3.8   c0.2,0.1,0.7,0.4,2.7,0.4c2.5,0,3.8-0.3,4.4-0.6c1-0.1,1-0.6,1-7.6c0-5.3,1.8-8.6,2.7-8.6c0.8,0,2.6,3,2.7,8.6   c0.1,3.9,0.4,11.3,0.4,11.3V45.9z"></path><circle cx="46.5" cy="50.7" r="1.8"></circle><circle cx="41.7" cy="50.7" r="1.8"></circle><circle cx="29.5" cy="62.7" r="1.8"></circle><circle cx="24.7" cy="62.7" r="1.8"></circle></g></g></svg>
